<?xml version="1.0" standalone="no"?>
<!DOCTYPE svg PUBLIC "-//W3C//DTD SVG 20010904//EN"
 "http://www.w3.org/TR/2001/REC-SVG-20010904/DTD/svg10.dtd">
<svg version="1.0" xmlns="http://www.w3.org/2000/svg"
 width="512.000000pt" height="512.000000pt" viewBox="0 0 512.000000 512.000000"
 preserveAspectRatio="xMidYMid meet">

<g transform="translate(0.000000,512.000000) scale(0.100000,-0.100000)"
fill="#000000" stroke="none">
<path d="M2285 5109 c-437 -44 -751 -146 -1035 -334 -458 -303 -751 -817 -884
-1550 -51 -280 -72 -501 -88 -910 -34 -892 95 -1412 443 -1779 191 -202 455
-343 804 -430 568 -141 1502 -141 2070 0 349 87 613 228 804 430 348 367 477
887 443 1779 -16 409 -37 630 -88 910 -108 594 -311 1026 -634 1345 -293 290
-667 460 -1160 525 -146 20 -541 28 -675 14z m540 -1190 c101 -246 186 -456
190 -468 6 -20 3 -21 -68 -21 l-74 0 -53 140 -53 140 -192 0 c-174 0 -194 -2
-200 -17 -4 -10 -24 -65 -45 -123 -21 -58 -41 -113 -45 -122 -6 -15 -20 -18
-77 -18 -52 0 -69 3 -65 13 5 14 335 869 348 905 8 21 14 23 80 20 l71 -3 183
-446z m-1164 -1112 c77 -52 101 -140 58 -216 -29 -52 -64 -74 -124 -79 -101
-8 -166 47 -173 147 -3 46 0 62 20 91 36 53 83 80 138 80 32 0 58 -7 81 -23z
m1893 9 c18 -8 46 -31 62 -51 37 -49 41 -137 8 -182 -55 -74 -155 -97 -225
-50 -48 31 -83 105 -74 156 18 110 127 170 229 127z m-882 -487 c140 -30 215
-94 363 -310 129 -186 214 -270 343 -337 233 -121 518 -204 855 -248 67 -9
123 -17 124 -18 5 -4 -45 -181 -68 -241 -85 -229 -259 -423 -478 -535 -194
-98 -508 -166 -881 -190 -597 -37 -1184 18 -1503 140 -343 133 -543 361 -643
734 -13 50 -23 91 -21 92 1 1 57 9 124 18 337 44 622 127 855 248 129 67 214
151 342 337 146 211 216 273 351 307 64 16 169 17 237 3z"/>
<path d="M2555 4203 c-3 -21 -35 -114 -69 -208 l-64 -170 146 -3 c79 -1 147
-1 149 2 5 5 -136 396 -148 409 -4 5 -10 -8 -14 -30z"/>
<path d="M1993 1425 c-12 -34 3 -180 25 -228 48 -107 143 -187 264 -222 100
-30 261 -26 362 9 125 43 246 136 263 204 9 39 -7 45 -91 32 -102 -17 -278 -8
-386 20 -106 27 -230 84 -326 150 -77 53 -101 60 -111 35z"/>
<path d="M1915 960 c-9 -14 29 -72 69 -108 92 -81 261 -119 379 -86 9 3 17 14
17 24 0 14 -11 22 -42 30 -176 46 -220 61 -320 111 -83 42 -93 45 -103 29z"/>
</g>
</svg>
