<?xml version="1.0" standalone="no"?>
<!DOCTYPE svg PUBLIC "-//W3C//DTD SVG 20010904//EN"
 "http://www.w3.org/TR/2001/REC-SVG-20010904/DTD/svg10.dtd">
<svg version="1.0" xmlns="http://www.w3.org/2000/svg"
 width="512.000000pt" height="512.000000pt" viewBox="0 0 512.000000 512.000000"
 preserveAspectRatio="xMidYMid meet">

<g transform="translate(0.000000,512.000000) scale(0.100000,-0.100000)"
fill="#000000" stroke="none">
<path d="M1679 4977 c-9 -7 -19 -21 -22 -32 -5 -16 -64 -512 -119 -995 -7 -69
-13 -423 -17 -1034 l-6 -929 -330 -204 c-310 -190 -337 -205 -445 -239 -338
-105 -388 -130 -510 -253 -126 -126 -172 -223 -211 -437 -30 -171 -39 -161
201 -259 599 -246 1229 -393 1900 -446 219 -17 715 -14 935 5 661 58 1257 200
1845 441 230 95 228 92 210 214 -36 240 -99 373 -243 508 -92 86 -155 117
-400 198 -240 80 -220 70 -657 343 l-205 128 -6 894 c-7 995 -3 921 -89 1650
-45 388 -52 427 -71 443 -52 42 -74 15 -164 -196 l-78 -184 -81 37 c-192 89
-387 127 -601 116 -210 -9 -355 -42 -514 -117 -46 -21 -85 -38 -87 -36 -2 1
-37 83 -79 182 -87 205 -111 236 -156 202z m733 -2395 c112 -83 133 -95 157
-87 11 3 65 39 122 80 l103 75 273 0 273 0 0 -110 c0 -89 -4 -121 -23 -174
-82 -225 -377 -523 -567 -572 -97 -25 -313 -22 -401 5 -87 27 -192 102 -310
220 -113 114 -186 214 -230 319 -29 68 -33 90 -37 195 l-4 117 276 0 276 0 92
-68z"/>
</g>
</svg>
