<?xml version="1.0" standalone="no"?>
<!DOCTYPE svg PUBLIC "-//W3C//DTD SVG 20010904//EN"
 "http://www.w3.org/TR/2001/REC-SVG-20010904/DTD/svg10.dtd">
<svg version="1.0" xmlns="http://www.w3.org/2000/svg"
 width="512.000000pt" height="512.000000pt" viewBox="0 0 512.000000 512.000000"
 preserveAspectRatio="xMidYMid meet">

<g transform="translate(0.000000,512.000000) scale(0.100000,-0.100000)"
fill="#000000" stroke="none">
<path d="M1028 5056 c-115 -140 -225 -348 -270 -511 -18 -65 -22 -109 -24
-242 l-1 -161 -59 -69 c-308 -358 -493 -760 -566 -1228 -25 -164 -30 -521 -9
-665 42 -291 119 -548 236 -785 128 -262 270 -461 475 -665 206 -206 404 -347
665 -475 348 -171 688 -248 1085 -248 420 0 779 87 1146 277 384 200 718 508
958 886 76 119 191 363 240 510 93 277 130 502 130 800 0 214 -14 342 -55 530
-77 353 -235 692 -455 977 -62 80 -63 82 -52 120 17 61 4 284 -22 373 -49 174
-196 420 -347 585 -46 49 -54 55 -72 45 -24 -12 -26 -35 -11 -127 24 -145 32
-547 11 -516 -9 14 -154 110 -249 165 -277 160 -609 269 -937 309 -145 18
-476 16 -610 -4 -264 -37 -514 -112 -743 -222 -134 -65 -268 -142 -309 -178
-26 -23 -26 -23 -44 68 -8 45 -21 365 -19 482 0 7 -9 17 -20 23 -17 9 -26 2
-72 -54z m1764 -2716 c356 -92 681 -246 947 -450 210 -159 304 -332 303 -560
-2 -337 -231 -578 -692 -728 -552 -179 -1323 -140 -1785 90 -205 102 -338 222
-405 363 -90 191 -90 373 1 562 62 130 181 243 404 387 244 157 643 317 915
367 72 13 186 2 312 -31z"/>
</g>
</svg>
