<?xml version="1.0" standalone="no"?>
<!DOCTYPE svg PUBLIC "-//W3C//DTD SVG 20010904//EN"
 "http://www.w3.org/TR/2001/REC-SVG-20010904/DTD/svg10.dtd">
<svg version="1.0" xmlns="http://www.w3.org/2000/svg"
 width="512.000000pt" height="512.000000pt" viewBox="0 0 512.000000 512.000000"
 preserveAspectRatio="xMidYMid meet">

<g transform="translate(0.000000,512.000000) scale(0.100000,-0.100000)"
fill="#000000" stroke="none">
<path d="M2255 5105 c-402 -43 -714 -144 -975 -315 -495 -326 -793 -849 -926
-1627 -72 -427 -101 -1102 -63 -1518 74 -820 425 -1293 1116 -1504 316 -96
648 -135 1153 -135 420 0 644 19 935 80 840 176 1253 658 1334 1559 38 416 9
1091 -63 1518 -149 872 -521 1449 -1121 1737 -368 177 -906 256 -1390 205z
m-351 -727 c53 -227 102 -426 108 -441 6 -15 22 -37 36 -47 24 -19 43 -20 512
-20 469 0 488 1 512 20 14 10 30 32 36 47 6 15 54 213 108 438 53 226 98 412
101 415 2 2 34 -6 71 -19 208 -72 412 -201 579 -365 l112 -111 4 -490 c5 -575
2 -554 108 -930 53 -188 63 -257 49 -336 -23 -126 -70 -192 -306 -427 -215
-213 -327 -372 -375 -531 -19 -66 -21 -89 -16 -200 5 -122 12 -157 73 -395
l26 -99 -109 -108 -108 -108 -120 86 c-66 48 -148 106 -183 130 l-63 43 -132
0 -131 0 -54 52 -53 53 -124 3 -125 4 -58 -56 -59 -56 -134 0 -134 0 -182
-131 -182 -130 -128 107 c-71 58 -129 110 -131 113 -1 4 27 79 63 167 70 169
84 233 85 369 0 215 -108 402 -406 701 -230 229 -271 287 -294 413 -14 79 -4
148 49 336 106 376 103 355 108 930 l4 490 112 111 c113 111 264 222 390 286
74 37 226 97 247 98 13 0 37 -87 114 -412z"/>
<path d="M1321 3306 c-6 -7 -24 -100 -38 -205 -27 -188 -27 -192 -9 -226 22
-41 63 -59 184 -80 147 -26 363 -37 562 -27 140 7 185 13 197 25 12 12 39 172
43 252 0 6 107 10 300 10 193 0 300 -4 300 -10 4 -81 31 -240 43 -252 12 -12
57 -18 194 -25 265 -13 579 13 692 58 25 10 45 27 57 49 18 34 18 38 -9 226
-14 105 -32 198 -38 205 -16 20 -46 18 -161 -11 -380 -97 -779 -142 -1158
-131 -389 10 -652 45 -982 127 -131 33 -160 35 -177 15z m499 -236 c161 -36
244 -73 248 -110 2 -14 -4 -34 -12 -45 -39 -53 -489 4 -561 71 -32 30 -32 68
1 101 25 25 29 26 107 20 45 -3 143 -20 217 -37z m1805 15 c53 -52 18 -110
-83 -138 -109 -31 -247 -51 -355 -51 -97 -1 -110 1 -123 19 -8 11 -14 31 -12
45 4 37 87 74 243 109 154 35 172 38 248 40 49 1 62 -3 82 -24z"/>
</g>
</svg>
